<svg width="105" height="127" viewBox="0 0 105 127" fill="none" xmlns="http://www.w3.org/2000/svg">
<path d="M97.9 63.7002C99.5 63.7002 100.1 61.7002 98.2 61.7002C96.6 61.6002 95.9 63.7002 97.9 63.7002Z" fill="white"/>
<path d="M13.7 3.8999C13.7 3.8999 0.800021 95.2999 8.50002 117" stroke="white" stroke-width="2" stroke-miterlimit="10" stroke-linecap="round" stroke-linejoin="round"/>
<path d="M61.7 48.7998C61.7 48.7998 51.6 49.0998 27.5 60.3998C3.3 71.6998 1 67.3998 1 67.3998" stroke="white" stroke-width="2" stroke-miterlimit="10" stroke-linecap="round" stroke-linejoin="round"/>
<path d="M37 14.7998L37.6 99.4998" stroke="white" stroke-width="2" stroke-miterlimit="10" stroke-linecap="round" stroke-linejoin="round"/>
<path d="M46.1 73.5001C46.1 73.5001 53 74.8001 58.5 65.3001C64 55.8001 58.5 54.2001 58.5 54.2001C58.5 54.2001 48.2 51.9001 48 77.4001C47.8 102.9 69.6 77.4001 70.7 64.2001C70.7 64.2001 72.3 73.6001 77.1 71.2001C82 68.8001 85.7 56.8001 86.3 49.6001C86.9 42.4001 90.5 93.8001 86.3 113.7C81.9 134.5 72.8 122.2 71.4 118C70.4 115 65.5 97.8001 92.2 75.5001L101 68.1001" stroke="white" stroke-width="2" stroke-miterlimit="10" stroke-linecap="round" stroke-linejoin="round"/>
<path d="M101.1 3L98.4 57.3" stroke="white" stroke-width="2" stroke-miterlimit="10" stroke-linecap="round" stroke-linejoin="round"/>
</svg>