<svg id="Layer_1" data-name="Layer 1" xmlns="http://www.w3.org/2000/svg" viewBox="0 0 32 32"><defs><style>.cls-1{fill:#0284c7;}.cls-2{fill:#343940;opacity:0.15;}.cls-3{fill:#60a5fa;}.cls-4{fill:#38bdf8;}.cls-5{fill:#0ea5e9;}.cls-6{fill:#22d3ee;}.cls-7{fill:#ccfbf1;}</style></defs><title>brand</title><rect class="cls-1" width="32" height="32" rx="3.16" ry="3.16"/><polygon class="cls-2" points="30.72 29.56 26.13 11.72 27.28 4.36 8.25 3.05 6.76 4.83 4.85 23.71 10.6 28.89 30.72 29.56"/><polygon class="cls-3" points="29.8 28.95 25.21 11.11 26.36 3.74 7.33 2.44 5.84 4.22 3.93 23.1 9.68 28.28 29.8 28.95"/><path class="cls-4" d="M22.87,12.46a4.54,4.54,0,0,1-1.05,3,5.63,5.63,0,0,1-3.37,1.65L23.55,23a3.4,3.4,0,0,0,1.26.93,3.64,3.64,0,0,0,1.47.32v.88H21.07l-5.45-6.68a3.88,3.88,0,0,0-1-.89,1.47,1.47,0,0,0-.76-.23v4.3A6.75,6.75,0,0,0,14,23a1.42,1.42,0,0,0,.44.8,1.85,1.85,0,0,0,1,.39,10.77,10.77,0,0,0,1.68.1v.88H8.37v-.88a5.35,5.35,0,0,0,1.17-.1,1.38,1.38,0,0,0,.71-.37,1.61,1.61,0,0,0,.34-.77,8.63,8.63,0,0,0,.08-1.27V11.6a10.22,10.22,0,0,0-.06-1.24,1.51,1.51,0,0,0-.29-.75,1.05,1.05,0,0,0-.62-.37,6.36,6.36,0,0,0-1.09-.15V8.21h7.6a9.06,9.06,0,0,1,4.93,1.13A3.51,3.51,0,0,1,22.87,12.46ZM13.9,16h1.43a4.92,4.92,0,0,0,3.09-.81,3.15,3.15,0,0,0,1-2.64,3.07,3.07,0,0,0-.85-2.27,3.24,3.24,0,0,0-2.38-.85H14.3c-.26,0-.4.12-.4.37Z"/><path class="cls-5" d="M26.28,25.78H21.07a.65.65,0,0,1-.5-.24l-5.45-6.68a3.74,3.74,0,0,0-.58-.6v3.38a6.25,6.25,0,0,0,.1,1.2.77.77,0,0,0,.23.45,1.25,1.25,0,0,0,.64.24,10.84,10.84,0,0,0,1.58.09.64.64,0,0,1,.64.64v.88a.64.64,0,0,1-.64.64H8.37a.64.64,0,0,1-.64-.64v-.88a.63.63,0,0,1,.64-.64,4.66,4.66,0,0,0,1-.09.59.59,0,0,0,.37-.18A.86.86,0,0,0,10,22.9,7.19,7.19,0,0,0,10,21.75V11.6A8.64,8.64,0,0,0,10,10.45.87.87,0,0,0,9.82,10s-.08-.1-.28-.15a5.86,5.86,0,0,0-1-.13A.64.64,0,0,1,8,9.09V8.21a.64.64,0,0,1,.64-.64h7.6A9.73,9.73,0,0,1,21.48,8.8a4.14,4.14,0,0,1,2,3.66,5.2,5.2,0,0,1-1.21,3.47,5.53,5.53,0,0,1-2.67,1.61l4.4,5a2.74,2.74,0,0,0,1,.77,3,3,0,0,0,1.22.27.64.64,0,0,1,.64.64v.88A.64.64,0,0,1,26.28,25.78ZM21.37,24.5h3.11a4,4,0,0,1-1.41-1.08L18,17.58a.63.63,0,0,1-.12-.63.64.64,0,0,1,.49-.42,5,5,0,0,0,3-1.44,3.84,3.84,0,0,0,.9-2.63,2.91,2.91,0,0,0-1.44-2.59,7.64,7.64,0,0,0-3.69-1,3.55,3.55,0,0,1,1.94,1,3.7,3.7,0,0,1,1,2.72,3.77,3.77,0,0,1-1.26,3.15,5.54,5.54,0,0,1-3.49.94H13.9a.64.64,0,0,1-.64-.64V9.82a1,1,0,0,1,.69-1H10.42a1.54,1.54,0,0,1,.4.36,2.12,2.12,0,0,1,.42,1.06,9.67,9.67,0,0,1,.07,1.33V21.75a8.75,8.75,0,0,1-.09,1.38,2.12,2.12,0,0,1-.5,1.09,2.22,2.22,0,0,1-.33.28h4a2.16,2.16,0,0,1-.35-.24,2,2,0,0,1-.64-1.15,7.33,7.33,0,0,1-.13-1.47v-4.3a.64.64,0,0,1,.64-.64A2.17,2.17,0,0,1,15,17a4.29,4.29,0,0,1,1.13,1Zm-6.83-9.12h.79a4.43,4.43,0,0,0,2.7-.67,2.56,2.56,0,0,0,.77-2.14,2.46,2.46,0,0,0-.67-1.82,2.58,2.58,0,0,0-1.92-.66H14.54Z"/><path class="cls-6" d="M22.26,11.84A4.51,4.51,0,0,1,21.2,14.9a5.57,5.57,0,0,1-3.36,1.65l5.1,5.84a3.59,3.59,0,0,0,1.25.94,3.7,3.7,0,0,0,1.47.31v.88h-5.2L15,17.84a3.9,3.9,0,0,0-.95-.89,1.58,1.58,0,0,0-.76-.23V21a6.89,6.89,0,0,0,.11,1.33,1.4,1.4,0,0,0,.44.8,1.94,1.94,0,0,0,1,.39,12.22,12.22,0,0,0,1.68.09v.88H7.75v-.88a6.21,6.21,0,0,0,1.18-.09,1.29,1.29,0,0,0,.7-.38A1.49,1.49,0,0,0,10,22.4a7.25,7.25,0,0,0,.09-1.26V11A8.44,8.44,0,0,0,10,9.74,1.51,1.51,0,0,0,9.71,9a1.12,1.12,0,0,0-.63-.38A7.35,7.35,0,0,0,8,8.48V7.6H15.6a9.05,9.05,0,0,1,4.92,1.12A3.53,3.53,0,0,1,22.26,11.84Zm-9,3.56h1.43a4.92,4.92,0,0,0,3.09-.8,3.17,3.17,0,0,0,1-2.65A3.05,3.05,0,0,0,18,9.69a3.21,3.21,0,0,0-2.37-.86H13.69c-.27,0-.4.13-.4.38Z"/><path class="cls-7" d="M25.88,24.74H20.35L14.84,18a3.63,3.63,0,0,0-.9-.84A1.46,1.46,0,0,0,13.5,17V21a6.2,6.2,0,0,0,.11,1.28A1.22,1.22,0,0,0,14,23a1.63,1.63,0,0,0,.85.33,10.26,10.26,0,0,0,1.65.1h.21v1.31H7.54V23.43h.21a5.65,5.65,0,0,0,1.13-.09A1.08,1.08,0,0,0,9.47,23a1.3,1.3,0,0,0,.29-.66,6.88,6.88,0,0,0,.09-1.23V11a8,8,0,0,0-.07-1.22,1.34,1.34,0,0,0-.24-.64A.9.9,0,0,0,9,8.83a6.89,6.89,0,0,0-1-.14h-.2V7.39H15.6a9.4,9.4,0,0,1,5,1.15,3.76,3.76,0,0,1,1.83,3.3A4.74,4.74,0,0,1,21.36,15a5.52,5.52,0,0,1-3.12,1.64l4.86,5.57a3.27,3.27,0,0,0,1.18.88,3.4,3.4,0,0,0,1.38.3h.22Zm-5.32-.43h4.89v-.46a4.05,4.05,0,0,1-1.34-.33,3.68,3.68,0,0,1-1.33-1L17.43,16.4l.37-.06A5.42,5.42,0,0,0,21,14.76a4.33,4.33,0,0,0,1-2.92A3.28,3.28,0,0,0,20.41,8.9,8.94,8.94,0,0,0,15.6,7.81H8.21v.47a5.82,5.82,0,0,1,.92.14,1.24,1.24,0,0,1,.74.44,1.68,1.68,0,0,1,.34.85A11,11,0,0,1,10.27,11V21.14a7.76,7.76,0,0,1-.09,1.3,1.75,1.75,0,0,1-.39.88,1.51,1.51,0,0,1-.82.43,5.15,5.15,0,0,1-1,.11v.45h8.29v-.45a11.55,11.55,0,0,1-1.5-.1,2.16,2.16,0,0,1-1.06-.44,1.64,1.64,0,0,1-.51-.92A6.52,6.52,0,0,1,13.08,21V16.51h.21a1.77,1.77,0,0,1,.86.26,3.79,3.79,0,0,1,1,.94Zm-5.84-8.69H13.08V9.21a.55.55,0,0,1,.61-.59H15.6a3.42,3.42,0,0,1,2.52.92A3.27,3.27,0,0,1,19,12a3.39,3.39,0,0,1-1.1,2.82A5.2,5.2,0,0,1,14.72,15.62Zm-1.22-.43h1.22a4.81,4.81,0,0,0,3-.76A3,3,0,0,0,18.62,12a2.87,2.87,0,0,0-.8-2.11A3,3,0,0,0,15.6,9H13.69c-.17,0-.19.05-.19.17Z"/></svg>